<?xml version="1.0" encoding="UTF-8"?>
<svg id="Layer_1" xmlns="http://www.w3.org/2000/svg" version="1.1" viewBox="0 0 128.15 72">
  <!-- Generator: Adobe Illustrator 29.5.1, SVG Export Plug-In . SVG Version: 2.1.0 Build 141)  -->
  <defs>
    <style>
      .st0 {
        fill: #bf0d3e;
      }

      .st1 {
        fill: #041e42;
      }

      .st2 {
        fill: #fff;
      }
    </style>
  </defs>
  <path class="st2" d="M117.44,0H10.68c-2.83,0-5.55,1.1-7.57,3.08C1.09,5.1-.03,7.85,0,10.7v47.64c-.03,2.84,1.09,5.58,3.1,7.59,2.01,2.01,4.74,3.14,7.58,3.13h106.76c5.9-.03,10.67-4.82,10.66-10.72V10.69C128.14,4.83,123.43.04,117.57,0c-.04,0-.09,0-.13,0Z"/>
  <path class="st2" d="M122.32-27.49H9.74c-2.98,0-5.85,1.1-7.98,3.08-2.13,2.02-3.31,4.77-3.28,7.62V30.85c-.03,2.84,1.15,5.58,3.27,7.59,2.12,2.01,5,3.14,7.99,3.13h112.59c6.22-.03,11.25-4.82,11.24-10.72V-16.8c.05-5.86-4.92-10.65-11.1-10.69-.05,0-.09,0-.14,0Z"/>
  <path class="st0" d="M124.35,10.69c.04-3.79-2.99-6.9-6.78-6.94-.04,0-.09,0-.13,0h-29.84l17.12,28.61,1.58.2,1,1.31v1.22l1.08.22,1,1.36v1.18l1.12.2,1.13,1.23v2.72c1.35,1.21,2.86,2.23,4.5,3,1.51.58,1.68,3,2.59,4.29,1.14,1.88,2.7,2.63,2.37,3.68-.76,2.81-3.64,7.55-6.32,7.77h-10.6v4.54h13.28c3.83-.02,6.93-3.14,6.91-6.97,0-.01,0-.02,0-.03V10.69"/>
  <path class="st1" d="M51.35,60.81h-5.13c0-12.82,4.33-19.91,9.52-21.32.71-.13.37-3.63-.53-4.7h-3c-.48,0-.2-.9-.2-.9l2.43-5.19-.33-1.42h-8.98l7.38-5.16c.34-13.61,14.3-14.67,22.71-9,5,3.31,5.38,9.87,5,14.4-.06.29-1.3.1-1.3.1,0,0-.85,5,1.37,5h9.81c4-.16,7.86,2.55,7.86,2.55l.94-3.43L77.41,3.75H10.68c-1.85-.01-3.62.71-4.94,2-1.3,1.31-2.02,3.09-2,4.94v47.65c-.02,1.84.7,3.62,2,4.92,1.31,1.31,3.09,2.05,4.94,2.05h43.32c-1.06-1.82-2.27-3.89-2.64-4.5"/>
</svg>